<?xml version="1.0" encoding="UTF-8"?>
<!DOCTYPE svg PUBLIC "-//W3C//DTD SVG 1.1//EN" "http://www.w3.org/Graphics/SVG/1.1/DTD/svg11.dtd">
<svg xmlns="http://www.w3.org/2000/svg" version="1.1" width="859px" height="859px" style="shape-rendering:geometricPrecision; text-rendering:geometricPrecision; image-rendering:optimizeQuality; fill-rule:evenodd; clip-rule:evenodd" xmlns:xlink="http://www.w3.org/1999/xlink">
<g><path style="opacity:0.998" fill="#ffecec" d="M 399.5,-0.5 C 419.167,-0.5 438.833,-0.5 458.5,-0.5C 594.902,12.5558 703.069,74.2224 783,184.5C 826.951,249.518 852.118,321.184 858.5,399.5C 858.5,419.167 858.5,438.833 858.5,458.5C 849.244,564.988 807.577,656.321 733.5,732.5C 723.167,732.5 712.833,732.5 702.5,732.5C 702.5,721.833 702.5,711.167 702.5,700.5C 691.833,700.5 681.167,700.5 670.5,700.5C 670.5,689.833 670.5,679.167 670.5,668.5C 649.167,668.5 627.833,668.5 606.5,668.5C 606.5,657.833 606.5,647.167 606.5,636.5C 574.5,636.5 542.5,636.5 510.5,636.5C 510.5,615.167 510.5,593.833 510.5,572.5C 521.167,572.5 531.833,572.5 542.5,572.5C 542.5,561.833 542.5,551.167 542.5,540.5C 553.167,540.5 563.833,540.5 574.5,540.5C 574.5,519.167 574.5,497.833 574.5,476.5C 585.167,476.5 595.833,476.5 606.5,476.5C 606.5,433.833 606.5,391.167 606.5,348.5C 595.833,348.5 585.167,348.5 574.5,348.5C 574.5,337.833 574.5,327.167 574.5,316.5C 585.167,316.5 595.833,316.5 606.5,316.5C 606.5,295.167 606.5,273.833 606.5,252.5C 595.833,252.5 585.167,252.5 574.5,252.5C 574.5,231.167 574.5,209.833 574.5,188.5C 563.833,188.5 553.167,188.5 542.5,188.5C 542.5,177.833 542.5,167.167 542.5,156.5C 531.833,156.5 521.167,156.5 510.5,156.5C 510.5,145.833 510.5,135.167 510.5,124.5C 457.167,124.5 403.833,124.5 350.5,124.5C 350.5,135.167 350.5,145.833 350.5,156.5C 339.833,156.5 329.167,156.5 318.5,156.5C 318.5,167.167 318.5,177.833 318.5,188.5C 307.833,188.5 297.167,188.5 286.5,188.5C 286.5,209.833 286.5,231.167 286.5,252.5C 275.833,252.5 265.167,252.5 254.5,252.5C 254.5,273.833 254.5,295.167 254.5,316.5C 265.167,316.5 275.833,316.5 286.5,316.5C 286.5,391.167 286.5,465.833 286.5,540.5C 297.167,540.5 307.833,540.5 318.5,540.5C 318.5,551.167 318.5,561.833 318.5,572.5C 329.167,572.5 339.833,572.5 350.5,572.5C 350.5,593.833 350.5,615.167 350.5,636.5C 318.5,636.5 286.5,636.5 254.5,636.5C 254.5,647.167 254.5,657.833 254.5,668.5C 233.167,668.5 211.833,668.5 190.5,668.5C 190.5,679.167 190.5,689.833 190.5,700.5C 179.833,700.5 169.167,700.5 158.5,700.5C 158.5,711.167 158.5,721.833 158.5,732.5C 147.448,731.857 136.781,732.524 126.5,734.5C 51.1018,658.08 8.76851,566.08 -0.5,458.5C -0.5,438.833 -0.5,419.167 -0.5,399.5C 12.5558,263.098 74.2224,154.931 184.5,75C 249.518,31.0489 321.184,5.88221 399.5,-0.5 Z"/></g>
<g><path style="opacity:1" fill="#000000" d="M 733.5,732.5 C 722.418,744.252 710.418,754.918 697.5,764.5C 688.5,764.5 679.5,764.5 670.5,764.5C 670.5,753.833 670.5,743.167 670.5,732.5C 659.833,732.5 649.167,732.5 638.5,732.5C 638.5,721.833 638.5,711.167 638.5,700.5C 617.167,700.5 595.833,700.5 574.5,700.5C 574.5,689.833 574.5,679.167 574.5,668.5C 563.833,668.5 553.167,668.5 542.5,668.5C 542.5,689.833 542.5,711.167 542.5,732.5C 531.833,732.5 521.167,732.5 510.5,732.5C 510.5,743.167 510.5,753.833 510.5,764.5C 489.167,764.5 467.833,764.5 446.5,764.5C 446.5,795.833 446.5,827.167 446.5,858.5C 435.833,858.5 425.167,858.5 414.5,858.5C 414.5,827.167 414.5,795.833 414.5,764.5C 393.167,764.5 371.833,764.5 350.5,764.5C 350.5,753.833 350.5,743.167 350.5,732.5C 339.833,732.5 329.167,732.5 318.5,732.5C 318.5,711.167 318.5,689.833 318.5,668.5C 307.833,668.5 297.167,668.5 286.5,668.5C 286.5,679.167 286.5,689.833 286.5,700.5C 265.167,700.5 243.833,700.5 222.5,700.5C 222.5,711.167 222.5,721.833 222.5,732.5C 211.833,732.5 201.167,732.5 190.5,732.5C 190.5,743.167 190.5,753.833 190.5,764.5C 180.5,764.5 170.5,764.5 160.5,764.5C 148.375,755.431 137.042,745.431 126.5,734.5C 136.781,732.524 147.448,731.857 158.5,732.5C 158.5,721.833 158.5,711.167 158.5,700.5C 169.167,700.5 179.833,700.5 190.5,700.5C 190.5,689.833 190.5,679.167 190.5,668.5C 211.833,668.5 233.167,668.5 254.5,668.5C 254.5,657.833 254.5,647.167 254.5,636.5C 286.5,636.5 318.5,636.5 350.5,636.5C 350.5,615.167 350.5,593.833 350.5,572.5C 339.833,572.5 329.167,572.5 318.5,572.5C 318.5,561.833 318.5,551.167 318.5,540.5C 307.833,540.5 297.167,540.5 286.5,540.5C 286.5,465.833 286.5,391.167 286.5,316.5C 275.833,316.5 265.167,316.5 254.5,316.5C 254.5,295.167 254.5,273.833 254.5,252.5C 265.167,252.5 275.833,252.5 286.5,252.5C 286.5,231.167 286.5,209.833 286.5,188.5C 297.167,188.5 307.833,188.5 318.5,188.5C 318.5,177.833 318.5,167.167 318.5,156.5C 329.167,156.5 339.833,156.5 350.5,156.5C 350.5,145.833 350.5,135.167 350.5,124.5C 403.833,124.5 457.167,124.5 510.5,124.5C 510.5,135.167 510.5,145.833 510.5,156.5C 521.167,156.5 531.833,156.5 542.5,156.5C 542.5,167.167 542.5,177.833 542.5,188.5C 553.167,188.5 563.833,188.5 574.5,188.5C 574.5,209.833 574.5,231.167 574.5,252.5C 585.167,252.5 595.833,252.5 606.5,252.5C 606.5,273.833 606.5,295.167 606.5,316.5C 595.833,316.5 585.167,316.5 574.5,316.5C 574.5,327.167 574.5,337.833 574.5,348.5C 585.167,348.5 595.833,348.5 606.5,348.5C 606.5,391.167 606.5,433.833 606.5,476.5C 595.833,476.5 585.167,476.5 574.5,476.5C 574.5,497.833 574.5,519.167 574.5,540.5C 563.833,540.5 553.167,540.5 542.5,540.5C 542.5,551.167 542.5,561.833 542.5,572.5C 531.833,572.5 521.167,572.5 510.5,572.5C 510.5,593.833 510.5,615.167 510.5,636.5C 542.5,636.5 574.5,636.5 606.5,636.5C 606.5,647.167 606.5,657.833 606.5,668.5C 627.833,668.5 649.167,668.5 670.5,668.5C 670.5,679.167 670.5,689.833 670.5,700.5C 681.167,700.5 691.833,700.5 702.5,700.5C 702.5,711.167 702.5,721.833 702.5,732.5C 712.833,732.5 723.167,732.5 733.5,732.5 Z"/></g>
<g><path style="opacity:1" fill="#fefffe" d="M 510.5,252.5 C 521.167,252.5 531.833,252.5 542.5,252.5C 542.5,263.167 542.5,273.833 542.5,284.5C 531.833,284.5 521.167,284.5 510.5,284.5C 510.5,273.833 510.5,263.167 510.5,252.5 Z"/></g>
<g><path style="opacity:1" fill="#b1724f" d="M 318.5,316.5 C 393.167,316.5 467.833,316.5 542.5,316.5C 542.5,337.833 542.5,359.167 542.5,380.5C 553.167,380.5 563.833,380.5 574.5,380.5C 574.5,401.833 574.5,423.167 574.5,444.5C 563.833,444.5 553.167,444.5 542.5,444.5C 542.5,465.833 542.5,487.167 542.5,508.5C 531.833,508.5 521.167,508.5 510.5,508.5C 510.5,519.167 510.5,529.833 510.5,540.5C 499.833,540.5 489.167,540.5 478.5,540.5C 478.5,551.167 478.5,561.833 478.5,572.5C 446.5,572.5 414.5,572.5 382.5,572.5C 382.5,561.833 382.5,551.167 382.5,540.5C 371.833,540.5 361.167,540.5 350.5,540.5C 350.5,529.833 350.5,519.167 350.5,508.5C 339.833,508.5 329.167,508.5 318.5,508.5C 318.5,444.5 318.5,380.5 318.5,316.5 Z"/></g>
<g><path style="opacity:1" fill="#000000" d="M 350.5,348.5 C 361.167,348.5 371.833,348.5 382.5,348.5C 382.5,369.833 382.5,391.167 382.5,412.5C 371.833,412.5 361.167,412.5 350.5,412.5C 350.5,391.167 350.5,369.833 350.5,348.5 Z"/></g>
<g><path style="opacity:1" fill="#000000" d="M 446.5,348.5 C 457.167,348.5 467.833,348.5 478.5,348.5C 478.5,369.833 478.5,391.167 478.5,412.5C 467.833,412.5 457.167,412.5 446.5,412.5C 446.5,391.167 446.5,369.833 446.5,348.5 Z"/></g>
<g><path style="opacity:1" fill="#845338" d="M 446.5,668.5 C 446.5,657.833 446.5,647.167 446.5,636.5C 425.167,636.5 403.833,636.5 382.5,636.5C 382.5,625.833 382.5,615.167 382.5,604.5C 414.5,604.5 446.5,604.5 478.5,604.5C 478.5,625.833 478.5,647.167 478.5,668.5C 467.833,668.5 457.167,668.5 446.5,668.5 Z"/></g>
<g><path style="opacity:1" fill="#b1724f" d="M 382.5,636.5 C 403.833,636.5 425.167,636.5 446.5,636.5C 446.5,647.167 446.5,657.833 446.5,668.5C 425.167,668.5 403.833,668.5 382.5,668.5C 382.5,657.833 382.5,647.167 382.5,636.5 Z"/></g>
<g><path style="opacity:0.995" fill="#464646" d="M 414.5,858.5 C 409.5,858.5 404.5,858.5 399.5,858.5C 310.077,851.264 230.41,819.931 160.5,764.5C 170.5,764.5 180.5,764.5 190.5,764.5C 190.5,753.833 190.5,743.167 190.5,732.5C 201.167,732.5 211.833,732.5 222.5,732.5C 222.5,721.833 222.5,711.167 222.5,700.5C 243.833,700.5 265.167,700.5 286.5,700.5C 286.5,689.833 286.5,679.167 286.5,668.5C 297.167,668.5 307.833,668.5 318.5,668.5C 318.5,689.833 318.5,711.167 318.5,732.5C 329.167,732.5 339.833,732.5 350.5,732.5C 350.5,743.167 350.5,753.833 350.5,764.5C 371.833,764.5 393.167,764.5 414.5,764.5C 414.5,795.833 414.5,827.167 414.5,858.5 Z"/></g>
<g><path style="opacity:0.995" fill="#464646" d="M 697.5,764.5 C 627.59,819.931 547.923,851.264 458.5,858.5C 454.5,858.5 450.5,858.5 446.5,858.5C 446.5,827.167 446.5,795.833 446.5,764.5C 467.833,764.5 489.167,764.5 510.5,764.5C 510.5,753.833 510.5,743.167 510.5,732.5C 521.167,732.5 531.833,732.5 542.5,732.5C 542.5,711.167 542.5,689.833 542.5,668.5C 553.167,668.5 563.833,668.5 574.5,668.5C 574.5,679.167 574.5,689.833 574.5,700.5C 595.833,700.5 617.167,700.5 638.5,700.5C 638.5,711.167 638.5,721.833 638.5,732.5C 649.167,732.5 659.833,732.5 670.5,732.5C 670.5,743.167 670.5,753.833 670.5,764.5C 679.5,764.5 688.5,764.5 697.5,764.5 Z"/></g>
</svg>
